<svg xmlns="http://www.w3.org/2000/svg" width="543.353" height="442.496" viewBox="0 0 543.353 442.496">
  <g id="Group_4" data-name="Group 4" transform="translate(-688.563 -3952.021)">
    <path id="SMILE" d="M14.1,217.387q2.432-.119,5.661,3.253,4.989,5.057,11.034,8.966t13.126,6.655q13.86,5.376,27.107,4.443,3.587-.253,6.269-.99t4.465-1.962q1.783-1.225,2.673-2.94t.89-3.926q0-2.8-1.241-5.876t-3.727-6.459q-1.257-1.708-3.4-4.249t-5.179-5.924q-3.036-3.382-6.974-7.616t-8.788-9.33q-3.137-3.311-6.024-6.422t-5.52-6.019q-2.633-2.908-5.011-5.611t-4.5-5.2q-2.12-2.5-3.981-4.783t-3.461-4.362q-1.6-2.076-2.938-3.938t-2.412-3.511q-2.892-4.44-5.067-8.786t-3.628-8.589q-1.453-4.242-2.18-8.372t-.727-8.136q0-3.013.345-5.878t1.034-5.579q.689-2.714,1.722-5.275t2.409-4.965q1.376-2.4,3.092-4.649t3.773-4.328q2.056-2.083,4.449-4t5.121-3.674q5.2-3.345,10.936-5.728t12.018-3.8q6.277-1.418,13.078-1.867t14.114.071q9.852.7,18.764,3.355t16.91,7.269q5.913,3.5,10.14,7.831,2.1,2.151,3.149,3.909t1.048,3.131q0,1.312-1.172,2.385t-2.407,1.015q-1.911-.094-5.637-4-6.15-6.483-16.31-11.15Q96.807,77.023,87.132,76.4q-6.051-.39-9.894,2.049-3.867,2.454-3.867,6.717,0,2.567,1.2,5.76t3.582,7q2.367,3.774,6.351,8.8T94.064,118q4.283,4.846,8.133,9.273t7.27,8.439q3.421,4.013,6.417,7.618t5.573,6.808q2.577,3.2,4.738,6.007t3.908,5.214q1.748,2.41,3.085,4.429t2.265,3.65q3.81,6.756,5.709,13.279t1.9,12.855q0,5.383-1.346,10.53t-4.046,10.082q-2.724,4.98-6.529,9.179t-8.7,7.631q-4.8,3.354-10.177,6t-11.35,4.594q-5.971,1.947-12.544,3.2t-13.763,1.8q-6.9.532-13.454.108t-12.745-1.8q-6.193-1.38-12.019-3.715t-11.278-5.621q-3.926-2.37-6.88-4.527t-4.93-4.092Q11.32,227,10.331,225.292T9.342,222.1q0-1.714,1.431-3.171T14.1,217.387ZM292.178,82.311l17.762,76.574,7.862,33.052,6.96,29.5.931,3.715-49.583,3.614-16.669-73.9-37.929,68.4-41.881-64.851q-6.337,24.883-13.912,61.463-1.38,7.047-2.374,11.25t-1.6,5.555q-1.219,2.711-4.944,2.99-2.357.176-3.537-.615t-1.181-2.549q0-.527.754-3.536t2.26-8.491l6.62-25.169,11.349-42.8L194.6,75.311,246.737,164.4ZM380.6,93.064v6.568l-.415,51.42.415,70.1-44.316,3.23.455-80.367-.531-49.1.076-4.816Zm55.052,3.684-.244,18.422-.244,29.375.061,21.443.244,45.428,4.366-.2,25.067-2.259,4.411-.374q1.654-.108,2.48.586t.826,2.193q0,2.654-1.791,3.041-.393.115-2.589.361L396.416,220l.2-35.049.133-21.483.133-24.334-.267-37.067.067-7.924Zm75.842,40.3q-.1,3.7-.1,9.007v4.826l.355,55.479,16.822-1.383,11.48-.956q2.77-.182,2.77,2.56,0,2.284-1.406,2.691-.329.1-3.917.438l-58.006,4.228.055-4.356.055-27.958.22-29.962-.44-51.99,54.4,3.64q3.386.227,3.861.488,1.089.532,1.089,2.676,0,2.68-2.086,2.555l-.333-.02-24.612-1.95-.2,24.921,5.492.236,17.128.018,3.668.029q1.986.058,2.622.626t.635,2.214q0,1.531-.778,2.279t-2.337.714l-3.762-.269Z" transform="translate(688.563 3952.021)" fill="#fff"/>
    <path id="INK" d="M43.22,75.457V81.7l-.375,48.9.375,66.659L6.6,194.6l.344-69.846L6.54,82.1,6.6,77.908Zm101.788,59.434V118.23L144.853,91.8l-.078-12.066-.078-7.576q0-2.694.722-4.089t2.168-1.494q1.726-.119,2.395,1.087t.67,4.716v1.4q-.079,2.11-.079,6.921l-.315,33.785-.236,30.96.2,32.567.27,32.686q-3.974-3.479-8.809-7.586t-10.515-8.826q-5.68-4.72-12.183-10.035t-13.807-11.207q-6.928-5.589-13.122-10.523t-11.671-9.228Q74.91,149,70.133,145.334t-8.868-6.716l.065,4.467.651,47.068.065,6.3q0,3.922-2.6,3.727-1.326-.1-1.988-1.349t-.662-3.653l.064-6.34.064-10.239.258-46.5-.516-62.614q1.7,1.36,3.529,2.8t3.782,2.963q1.955,1.522,4.038,3.127t4.3,3.293q2.213,1.688,4.557,3.461t4.82,3.631q2.476,1.858,5.085,3.8t5.354,3.976q2.744,2.032,5.625,4.152t5.9,4.331q3.019,2.21,6.177,4.511t6.459,4.695q3.3,2.393,6.743,4.881t7.032,5.069q3.589,2.582,7.324,5.26T145.009,134.891ZM241.348,93.7l14.215,32.979q6.3,14.541,11.855,27.026t10.339,22.879q4.869,10.572,8.519,18.007t6.065,11.7q3.005,5.486,3.083,7.2,0,2.169-1.345,3.156t-4.03.786q-2.361-.177-3.436-1.913-.536-.866-1.872-3.849t-3.47-8.077l-6.245-14.97-9.728-23.22-8.879-21.141-6.447-15.191-13.692-32.1-16.785,12.4-.09,15.88V135.87l.524,68.912.109,5.375-52.63-3.837.49-87.08-.163-24.782-.326-21.7V67.147l52.63-3.522L219.6,80.806l-.109,20.8,15.661-11.571q13.674-10.026,24.55-19.065,2.8-2.26,5.107-4.093t4.111-3.233q1.805-1.4,3.107-2.367t2.1-1.5q3.208-2.139,6.031-2.334,2.688-.185,4.035.664t1.347,2.729q0,1.939-1.478,3.343T277.25,68.77q-.785.464-1.8,1.109t-2.269,1.469q-1.251.824-2.733,1.827t-3.2,2.185q-1.713,1.181-3.655,2.54t-4.111,2.893q-2.169,1.534-4.563,3.243t-5.012,3.591Z" transform="translate(844.926 4127)" fill="#fff"/>
  </g>
</svg>
